<svg xmlns="http://www.w3.org/2000/svg" xmlns:xlink="http://www.w3.org/1999/xlink" viewBox="0 97.321 401.7333333333333 155.10266666666664" width="401.7333333333333" height="155.10266666666664">
<polygon points="0,0 0,340 437,340 437,0" fill="#ffffff00" stroke="none" />
<path d="M 38.667,144.000 C 42.921,147.011 43.167,146.167 47.667,148.333" stroke-width="3.883" stroke="#000000" fill="none" stroke-linecap="round"></path><path d="M 47.667,148.333 C 53.311,149.379 53.088,149.844 59.000,149.667" stroke-width="2.909" stroke="#000000" fill="none" stroke-linecap="round"></path><path d="M 59.000,149.667 C 66.745,151.073 66.478,150.045 74.000,149.667" stroke-width="3.036" stroke="#000000" fill="none" stroke-linecap="round"></path><path d="M 74.000,149.667 C 83.681,148.004 83.078,147.907 91.667,143.333" stroke-width="2.347" stroke="#000000" fill="none" stroke-linecap="round"></path><path d="M 91.667,143.333 C 101.096,136.789 101.347,137.671 109.333,129.000" stroke-width="2.250" stroke="#000000" fill="none" stroke-linecap="round"></path><path d="M 109.333,129.000 C 116.414,122.090 116.430,122.289 122.333,114.333" stroke-width="2.250" stroke="#000000" fill="none" stroke-linecap="round"></path><path d="M 122.333,114.333 C 130.197,104.585 126.080,109.424 128.667,103.667" stroke-width="2.369" stroke="#000000" fill="none" stroke-linecap="round"></path><path d="M 128.667,103.667 C 121.226,105.718 126.864,102.585 115.667,110.333" stroke-width="2.865" stroke="#000000" fill="none" stroke-linecap="round"></path><path d="M 115.667,110.333 C 104.344,121.517 103.559,120.385 93.333,133.000" stroke-width="2.250" stroke="#000000" fill="none" stroke-linecap="round"></path><path d="M 93.333,133.000 C 81.181,146.013 81.011,145.850 69.000,159.000" stroke-width="2.250" stroke="#000000" fill="none" stroke-linecap="round"></path><path d="M 69.000,159.000 C 59.225,170.972 58.514,170.180 48.000,181.333" stroke-width="2.250" stroke="#000000" fill="none" stroke-linecap="round"></path><path d="M 48.000,181.333 C 39.611,189.233 39.725,188.972 30.000,195.000" stroke-width="2.250" stroke="#000000" fill="none" stroke-linecap="round"></path><path d="M 30.000,195.000 C 22.537,198.920 22.945,199.233 14.667,201.333" stroke-width="2.250" stroke="#000000" fill="none" stroke-linecap="round"></path><path d="M 14.667,201.333 C 9.284,203.524 10.037,202.753 5.000,202.667" stroke-width="2.578" stroke="#000000" fill="none" stroke-linecap="round"></path><path d="M 5.000,202.667 C 0.507,200.320 2.618,202.190 1.333,198.667" stroke-width="3.361" stroke="#000000" fill="none" stroke-linecap="round"></path><path d="M 1.333,198.667 C 5.093,195.114 2.840,195.653 9.667,193.333" stroke-width="2.933" stroke="#000000" fill="none" stroke-linecap="round"></path><path d="M 9.667,193.333 C 21.194,189.285 20.927,188.948 33.000,186.333" stroke-width="2.250" stroke="#000000" fill="none" stroke-linecap="round"></path><path d="M 33.000,186.333 C 47.247,182.826 47.194,182.785 61.667,180.333" stroke-width="2.250" stroke="#000000" fill="none" stroke-linecap="round"></path><path d="M 61.667,180.333 C 74.291,178.025 74.247,178.159 87.000,177.000" stroke-width="2.250" stroke="#000000" fill="none" stroke-linecap="round"></path><path d="M 87.000,177.000 C 95.077,176.409 94.958,176.358 103.000,177.000" stroke-width="2.250" stroke="#000000" fill="none" stroke-linecap="round"></path><path d="M 103.000,177.000 C 107.498,176.739 106.243,177.242 109.333,178.667" stroke-width="2.784" stroke="#000000" fill="none" stroke-linecap="round"></path><path d="M 109.333,178.667 C 107.767,183.230 110.831,180.239 109.667,184.000" stroke-width="3.475" stroke="#000000" fill="none" stroke-linecap="round"></path><path d="M 109.667,184.000 C 115.725,184.374 113.934,185.730 121.667,183.667" stroke-width="3.701" stroke="#000000" fill="none" stroke-linecap="round"></path><path d="M 121.667,183.667 C 129.637,181.969 129.725,182.707 137.667,180.667" stroke-width="2.594" stroke="#000000" fill="none" stroke-linecap="round"></path><path d="M 137.667,180.667 C 145.299,178.201 141.970,179.969 146.333,179.667" stroke-width="2.809" stroke="#000000" fill="none" stroke-linecap="round"></path><path d="M 146.333,179.667 C 139.567,185.207 147.299,181.034 141.667,186.333" stroke-width="3.482" stroke="#000000" fill="none" stroke-linecap="round"></path><path d="M 141.667,186.333 C 151.012,188.222 146.400,188.873 160.000,187.000" stroke-width="3.047" stroke="#000000" fill="none" stroke-linecap="round"></path><path d="M 160.000,187.000 C 171.712,183.987 171.845,185.389 183.333,180.667" stroke-width="2.250" stroke="#000000" fill="none" stroke-linecap="round"></path><path d="M 183.333,180.667 C 193.393,176.598 189.212,178.987 195.000,177.000" stroke-width="2.398" stroke="#000000" fill="none" stroke-linecap="round"></path><path d="M 195.000,177.000 C 191.500,179.167 196.060,177.265 188.667,182.000" stroke-width="3.149" stroke="#000000" fill="none" stroke-linecap="round"></path><path d="M 146.333,138.333 C 148.554,135.209 148.833,135.500 151.333,132.667" stroke-width="4.017" stroke="#000000" fill="none" stroke-linecap="round"></path><path d="M 151.333,132.667 C 156.457,128.051 156.388,128.043 162.000,124.000" stroke-width="2.809" stroke="#000000" fill="none" stroke-linecap="round"></path><path d="M 162.000,124.000 C 169.416,118.417 169.457,118.551 177.333,113.667" stroke-width="2.839" stroke="#000000" fill="none" stroke-linecap="round"></path><path d="M 177.333,113.667 C 185.937,107.815 186.082,108.417 195.333,104.000" stroke-width="2.250" stroke="#000000" fill="none" stroke-linecap="round"></path><path d="M 195.333,104.000 C 203.111,100.865 202.770,100.981 211.000,100.000" stroke-width="2.265" stroke="#000000" fill="none" stroke-linecap="round"></path><path d="M 211.000,100.000 C 218.509,98.191 215.278,99.531 219.667,101.333" stroke-width="2.679" stroke="#000000" fill="none" stroke-linecap="round"></path><path d="M 219.667,101.333 C 221.211,110.918 222.009,107.691 218.000,119.000" stroke-width="2.326" stroke="#000000" fill="none" stroke-linecap="round"></path><path d="M 218.000,119.000 C 209.803,134.898 211.544,135.251 200.333,150.000" stroke-width="2.250" stroke="#000000" fill="none" stroke-linecap="round"></path><path d="M 200.333,150.000 C 190.513,165.851 190.469,165.731 179.333,180.667" stroke-width="2.250" stroke="#000000" fill="none" stroke-linecap="round"></path><path d="M 179.333,180.667 C 170.053,193.216 170.013,193.018 159.333,204.333" stroke-width="2.250" stroke="#000000" fill="none" stroke-linecap="round"></path><path d="M 159.333,204.333 C 151.762,211.827 152.053,211.883 143.333,218.000" stroke-width="2.250" stroke="#000000" fill="none" stroke-linecap="round"></path><path d="M 143.333,218.000 C 134.534,222.692 139.929,220.493 135.667,221.667" stroke-width="2.518" stroke="#000000" fill="none" stroke-linecap="round"></path><path d="M 264.000,122.667 C 262.498,131.314 262.000,131.167 260.000,139.667" stroke-width="3.485" stroke="#000000" fill="none" stroke-linecap="round"></path><path d="M 260.000,139.667 C 256.733,149.024 257.165,149.147 253.333,158.333" stroke-width="2.364" stroke="#000000" fill="none" stroke-linecap="round"></path><path d="M 253.333,158.333 C 249.579,168.135 249.733,168.191 246.000,178.000" stroke-width="2.250" stroke="#000000" fill="none" stroke-linecap="round"></path><path d="M 246.000,178.000 C 242.898,187.023 242.746,186.968 239.667,196.000" stroke-width="2.250" stroke="#000000" fill="none" stroke-linecap="round"></path><path d="M 239.667,196.000 C 237.250,203.871 236.898,203.690 234.000,211.333" stroke-width="2.250" stroke="#000000" fill="none" stroke-linecap="round"></path><path d="M 126.000,188.333 C 139.003,183.841 139.167,184.500 152.333,180.667" stroke-width="3.395" stroke="#000000" fill="none" stroke-linecap="round"></path><path d="M 152.333,180.667 C 174.032,175.389 174.003,175.507 196.000,171.667" stroke-width="2.250" stroke="#000000" fill="none" stroke-linecap="round"></path><path d="M 196.000,171.667 C 224.203,166.276 224.198,166.889 252.667,163.667" stroke-width="2.250" stroke="#000000" fill="none" stroke-linecap="round"></path><path d="M 252.667,163.667 C 284.337,162.230 284.203,160.776 316.000,160.667" stroke-width="2.250" stroke="#000000" fill="none" stroke-linecap="round"></path><path d="M 261.667,201.333 C 266.195,199.739 266.167,199.667 270.667,198.000" stroke-width="4.135" stroke="#000000" fill="none" stroke-linecap="round"></path><path d="M 270.667,198.000 C 275.149,196.122 275.195,196.239 279.667,194.333" stroke-width="3.651" stroke="#000000" fill="none" stroke-linecap="round"></path><path d="M 279.667,194.333 C 286.006,191.478 283.149,192.955 286.667,191.667" stroke-width="3.220" stroke="#000000" fill="none" stroke-linecap="round"></path><path d="M 286.667,191.667 C 284.374,193.394 287.173,191.811 282.000,195.000" stroke-width="3.656" stroke="#000000" fill="none" stroke-linecap="round"></path><path d="M 282.000,195.000 C 273.388,198.731 278.708,197.227 275.333,199.333" stroke-width="3.222" stroke="#000000" fill="none" stroke-linecap="round"></path><path d="M 275.333,199.333 C 285.910,200.686 280.388,200.898 296.000,199.333" stroke-width="3.182" stroke="#000000" fill="none" stroke-linecap="round"></path><path d="M 296.000,199.333 C 308.067,195.560 302.076,198.519 307.667,195.000" stroke-width="2.749" stroke="#000000" fill="none" stroke-linecap="round"></path><path d="M 307.667,195.000 C 300.757,195.258 307.233,194.393 294.333,197.000" stroke-width="3.252" stroke="#000000" fill="none" stroke-linecap="round"></path><path d="M 294.333,197.000 C 288.425,197.784 290.924,197.925 288.000,200.333" stroke-width="3.151" stroke="#000000" fill="none" stroke-linecap="round"></path><path d="M 288.000,200.333 C 292.692,204.696 287.425,203.784 292.333,209.000" stroke-width="3.659" stroke="#000000" fill="none" stroke-linecap="round"></path><path d="M 292.333,209.000 C 290.472,215.568 291.859,214.696 286.333,220.333" stroke-width="2.818" stroke="#000000" fill="none" stroke-linecap="round"></path><path d="M 286.333,220.333 C 278.436,227.455 279.472,228.234 270.333,234.333" stroke-width="2.250" stroke="#000000" fill="none" stroke-linecap="round"></path><path d="M 270.333,234.333 C 263.935,239.424 264.103,239.622 257.667,244.667" stroke-width="2.250" stroke="#000000" fill="none" stroke-linecap="round"></path><path d="M 257.667,244.667 C 253.045,249.762 254.769,247.090 252.000,249.667" stroke-width="2.757" stroke="#000000" fill="none" stroke-linecap="round"></path><path d="M 252.000,249.667 C 252.548,246.753 251.212,249.595 254.000,244.333" stroke-width="3.443" stroke="#000000" fill="none" stroke-linecap="round"></path><path d="M 254.000,244.333 C 256.972,240.312 256.548,240.086 260.000,236.333" stroke-width="2.992" stroke="#000000" fill="none" stroke-linecap="round"></path><path d="M 260.000,236.333 C 265.123,228.844 265.472,229.145 271.000,222.000" stroke-width="2.318" stroke="#000000" fill="none" stroke-linecap="round"></path><path d="M 271.000,222.000 C 277.502,214.832 277.289,214.677 284.333,208.000" stroke-width="2.250" stroke="#000000" fill="none" stroke-linecap="round"></path><path d="M 284.333,208.000 C 288.974,200.864 288.168,204.165 292.333,200.667" stroke-width="2.542" stroke="#000000" fill="none" stroke-linecap="round"></path><path d="M 292.333,200.667 C 293.896,207.068 294.641,200.531 295.667,207.333" stroke-width="3.478" stroke="#000000" fill="none" stroke-linecap="round"></path><path d="M 295.667,207.333 C 297.170,204.396 297.229,207.568 299.000,201.667" stroke-width="3.813" stroke="#000000" fill="none" stroke-linecap="round"></path><path d="M 299.000,201.667 C 307.324,190.641 306.670,190.229 314.667,179.000" stroke-width="2.250" stroke="#000000" fill="none" stroke-linecap="round"></path><path d="M 314.667,179.000 C 320.881,168.840 320.991,168.974 326.333,158.333" stroke-width="2.250" stroke="#000000" fill="none" stroke-linecap="round"></path><path d="M 326.333,158.333 C 328.679,152.252 327.714,155.673 328.333,152.667" stroke-width="2.701" stroke="#000000" fill="none" stroke-linecap="round"></path><path d="M 328.333,152.667 C 326.512,156.506 327.845,153.252 324.667,160.333" stroke-width="3.261" stroke="#000000" fill="none" stroke-linecap="round"></path><path d="M 324.667,160.333 C 321.874,165.776 322.012,165.839 319.333,171.333" stroke-width="2.782" stroke="#000000" fill="none" stroke-linecap="round"></path><path d="M 319.333,171.333 C 316.571,177.461 316.541,177.442 314.000,183.667" stroke-width="2.588" stroke="#000000" fill="none" stroke-linecap="round"></path><path d="M 314.000,183.667 C 311.434,189.051 311.738,189.127 309.667,194.667" stroke-width="2.588" stroke="#000000" fill="none" stroke-linecap="round"></path><path d="M 309.667,194.667 C 306.655,199.770 308.601,198.051 308.333,201.667" stroke-width="2.970" stroke="#000000" fill="none" stroke-linecap="round"></path><path d="M 308.333,201.667 C 312.799,203.433 310.489,204.103 317.333,203.333" stroke-width="3.337" stroke="#000000" fill="none" stroke-linecap="round"></path><path d="M 317.333,203.333 C 328.034,202.427 327.965,203.100 338.667,201.000" stroke-width="2.263" stroke="#000000" fill="none" stroke-linecap="round"></path><path d="M 338.667,201.000 C 352.767,198.109 352.867,199.094 367.000,196.667" stroke-width="2.250" stroke="#000000" fill="none" stroke-linecap="round"></path><path d="M 367.000,196.667 C 377.498,196.217 377.433,195.609 388.000,196.000" stroke-width="2.250" stroke="#000000" fill="none" stroke-linecap="round"></path><path d="M 388.000,196.000 C 398.078,194.745 393.665,195.883 399.333,196.000" stroke-width="2.400" stroke="#000000" fill="none" stroke-linecap="round"></path><path d="M 399.333,196.000 C 396.095,198.846 400.245,196.912 392.333,200.333" stroke-width="3.337" stroke="#000000" fill="none" stroke-linecap="round"></path><path d="M 271.333,188.333 C 281.504,187.204 281.500,187.167 291.667,186.000" stroke-width="3.355" stroke="#000000" fill="none" stroke-linecap="round"></path><path d="M 291.667,186.000 C 303.987,184.380 304.004,184.538 316.333,183.000" stroke-width="2.250" stroke="#000000" fill="none" stroke-linecap="round"></path><path d="M 316.333,183.000 C 330.848,181.630 330.820,181.380 345.333,180.000" stroke-width="2.250" stroke="#000000" fill="none" stroke-linecap="round"></path><circle r="1.5" cx="293.3333333333333" cy="169" fill="#000000"></circle></svg>